Stairs_down
version=1
nRows=38
nColumns=18
inDegrees=yes

Units are S.I. units (second, meters, Newtons, ...)
Angles are in degrees.

endheader
time	pelvis_tilt	pelvis_list	pelvis_rotation	pelvis_tx	pelvis_ty	pelvis_tz	hip_flexion_r	hip_adduction_r	hip_rotation_r	knee_angle_r	ankle_angle_r	hip_flexion_l	hip_adduction_l	hip_rotation_l	knee_angle_l	ankle_angle_l	lumbar_extension
0	-6.3998729	2.26257428	-1.81682808	-0.00030534	1.59332919	0.11409407	3.47125742	0.25614812	0	-11.24302915	9.51434803	15.69243677	2.20200784	0	-10.96728966	0.2708829	-5.00000214
0.008	-6.35691241	2.27361202	-1.59081696	0.0018304	1.5931925	0.11292125	3.3204531	0.17855554	0	-11.34431827	9.68112446	15.63588804	2.29261829	0	-11.15419095	0.32344486	-5.00000214
0.017	-6.31454094	2.27155885	-1.33056172	0.00402846	1.5929426	0.11167482	3.18573182	0.11642647	0	-11.49630094	9.92656338	15.6051894	2.38965897	0	-11.41196719	0.59687751	-5.00000214
0.025	-6.29657243	2.28172923	-1.16496002	0.00603018	1.59265501	0.11058155	3.16446252	0.04427666	0	-11.78355785	10.11704093	15.59749169	2.48169758	0	-11.65058854	0.80887382	-5.00000214
0.033	-6.28487108	2.27400314	-1.02672962	0.00778413	1.59240494	0.10966928	3.1292683	0.00522974	0	-11.97409301	10.12266701	15.56433636	2.53559789	0	-11.77184268	0.81525555	-5.00000214
0.042	-6.45064841	2.26923897	-0.92013676	0.00814346	1.59173696	0.10892151	3.65976723	-0.02326192	0	-12.74674637	10.47567102	15.99053586	2.57622904	0	-12.26627136	0.99113869	-5.00000214
0.05	-6.31105144	2.30955446	-0.78280758	0.01138331	1.59149582	0.10728654	3.37110248	-0.18835456	0	-12.93192004	10.62652362	15.65278304	2.74649054	0	-12.26543623	1.21740885	-5.00000214
0.058	-6.2599414	2.28081347	-0.59308234	0.01379245	1.59121566	0.10596426	3.26810443	-0.23757331	0	-13.18714852	10.64377939	15.52024344	2.82808362	0	-12.34835787	1.28377679	-5.00000214
0.067	-6.23850347	2.30337747	-0.49741189	0.0158358	1.5907477	0.1046612	3.38708057	-0.34617389	0	-13.77077064	10.93953849	15.40168534	2.95741696	0	-12.41506403	1.65047835	-5.00000214
0.075	-6.23166085	2.29117411	-0.32980326	0.0178416	1.59022341	0.10331	3.51511469	-0.41680164	0	-14.36600512	11.2419363	15.38127208	3.07051487	0	-12.60605842	1.89828031	-5.00000214
0.083	-6.1949553	2.28917541	-0.19471484	0.02009059	1.58983564	0.10182334	3.59676268	-0.51413186	0	-14.93523025	11.37026229	15.25461108	3.20189416	0	-12.67523562	2.11859428	-5.00000214
0.092	-6.11814832	2.29711418	-0.10440586	0.02227311	1.58949197	0.10040187	3.69947274	-0.62528074	0	-15.58673718	11.44828314	15.0621405	3.3377464	0	-12.70531131	2.32035389	-5.00000214
0.1	-6.11490114	2.28709164	-0.00107935	0.02395573	1.58901456	0.09907175	4.08542048	-0.70599918	0	-16.60492757	11.64555425	15.01250453	3.45145929	0	-12.79351928	2.61550108	-5.00000214
0.108	-6.11111714	2.28161141	0.11864876	0.02573282	1.58861172	0.09759656	4.51152884	-0.80647238	0	-17.6920552	11.8115628	14.97318627	3.58579744	0	-12.93107229	2.90575983	-5.00000214
0.117	-6.0401877	2.31810155	0.23235123	0.02818242	1.58828723	0.09585909	4.83360605	-0.97909306	0	-18.79378634	11.98427829	14.76675078	3.77610358	0	-12.9970302	3.24904699	-5.00000214
0.125	-5.94591704	2.33592844	0.30869015	0.03081967	1.58815913	0.09417052	5.14699659	-1.13483032	0	-19.93168721	11.85228425	14.43171583	3.93383773	0	-12.88502233	3.5251267	-5.00000214
0.133	-5.92023315	2.35638122	0.36780138	0.03267501	1.58793429	0.09256553	5.78699331	-1.29974106	0	-21.44055611	11.80146048	14.34017173	4.07296642	0	-12.99890846	3.76568455	-5.00000214
0.142	-5.90906934	2.35006276	0.4571919	0.03435652	1.58766011	0.09097435	6.55860377	-1.43944829	0	-23.14672159	11.83244575	14.35223773	4.18252033	0	-13.24097941	3.97280478	-5.00000214
0.15	-5.86453456	2.34663911	0.51503436	0.036539	1.58753976	0.08930887	7.27658236	-1.59169709	0	-24.82984972	11.62233509	14.20969476	4.29999366	0	-13.32755361	4.16250642	-5.00000214
0.158	-5.85845297	2.375051	0.52967038	0.03845837	1.58738064	0.08758054	8.23462528	-1.80048584	0	-26.82486858	11.24032334	14.11944289	4.4499445	0	-13.39742209	4.31858673	-5.00000214
0.167	-5.84939664	2.39800231	0.5489791	0.04023281	1.58726588	0.08582487	9.33579714	-2.00879044	0	-29.06556956	10.6554643	14.00832515	4.60346245	0	-13.38740266	4.3970749	-5.00000214
0.175	-5.86830895	2.43382092	0.58280537	0.04203308	1.58725149	0.08400219	10.56347815	-2.24668105	0	-31.42216558	9.80924072	13.8853379	4.79405158	0	-13.22700942	4.35293861	-5.00000214
0.183	-5.89729445	2.48054139	0.5885143	0.0436349	1.58706477	0.08213619	11.88693493	-2.51969888	0	-33.88534737	8.89263219	13.79544517	4.96444804	0	-13.2266654	4.46984567	-5.00000214
0.192	-5.89450714	2.55542534	0.62444452	0.04532706	1.58679667	0.08024062	13.19656775	-2.84313778	0	-36.39886548	7.99723542	13.63367277	5.16611183	0	-13.14203635	4.55661375	-5.00000214
0.2	-5.92888372	2.6247648	0.64859425	0.04700931	1.58645344	0.07829932	14.64913437	-3.18563685	0	-38.98264262	7.00491167	13.48445172	5.35587289	0	-13.02755509	4.70941291	-5.00000214
0.208	-5.93816711	2.70317906	0.66905941	0.0487311	1.58621796	0.07637668	16.19283892	-3.56158743	0	-41.61656543	5.71269389	13.27849374	5.54556407	0	-12.90828666	4.9463693	-5.00000214
0.217	-5.99414621	2.74985906	0.74728158	0.05001703	1.5858491	0.07462599	17.85940268	-3.88858882	0	-44.23829932	4.17790344	13.28607291	5.69953568	0	-13.03971527	5.17894484	-5.00000214
0.225	-5.97903947	2.81067419	0.8332467	0.05168238	1.58554366	0.07284913	19.34202376	-4.21411652	0	-46.70790035	2.86678961	13.11428627	5.88602765	0	-12.93846378	5.36260082	-5.00000214
0.233	-6.06092211	2.86682409	1.00847549	0.05301675	1.58498741	0.07112149	20.91000408	-4.53621683	0	-49.04917054	1.24355716	13.19834664	6.07268118	0	-13.08701913	5.50907565	-5.00000214
0.242	-6.09538872	2.89534552	1.1913632	0.05462398	1.58447999	0.0694363	22.29486054	-4.83308385	0	-51.14389384	-0.13507225	13.20310038	6.221329	0	-13.26019214	5.73320286	-5.00000214
0.25	-6.05186752	2.91278651	1.40506805	0.0566952	1.58418868	0.067794	23.46110577	-5.11413996	0	-53.0123382	-0.82289494	13.0246812	6.36144202	0	-13.32810375	5.98266629	-5.00000214
0.258	-5.96225149	2.92936331	1.67542099	0.05913931	1.58406833	0.06618246	24.47561435	-5.38743149	0	-54.66922492	-1.34285104	12.72053652	6.50979698	0	-13.28193495	6.18494643	-5.00000214
0.267	-5.83922458	2.9592023	1.90286024	0.0618276	1.58396013	0.06457058	25.41450195	-5.65722968	0	-56.1795583	-1.52788589	12.3297891	6.6780072	0	-13.11856678	6.33816262	-5.00000214
0.275	-5.77681728	2.99879083	2.15117956	0.06418355	1.58373599	0.0629715	26.37599671	-5.92449638	0	-57.53784361	-1.0876255	12.17360021	6.85011008	0	-13.21391657	6.47327798	-5.00000214
0.283	-5.70993505	2.97129018	2.36399539	0.06652294	1.58353261	0.0616779	27.2329663	-6.0689053	0	-58.65866004	-0.29334194	11.98574782	6.90942371	0	-13.24739527	6.60807136	-5.00000214
0.292	-5.65518412	2.96560992	2.70463155	0.06883985	1.58327629	0.06018078	27.99332247	-6.23521648	0	-59.59574041	0.78746395	11.88027312	7.03089519	0	-13.46907572	6.84309541	-5.00000214
0.3	-5.59691772	2.9302427	3.02474416	0.07094559	1.58312291	0.05902717	28.75866158	-6.33340203	0	-60.35424255	1.46666513	11.76201589	7.09402024	0	-13.67277868	7.14289648	-5.00000214
0.308	-5.56496985	2.85285818	3.32889346	0.07287228	1.58300976	0.05795316	29.53752045	-6.35918697	0	-60.91400334	1.70813617	11.74979816	7.10620387	0	-14.00283522	7.46007666	-5.00000214
